<?xml version="1.0" encoding="UTF-8"?>
<svg xmlns="http://www.w3.org/2000/svg" width="800" height="600" viewBox="0 0 800 600" class="svgplot-f6724caad" role="img" aria-label="Chart">
  <rect x="0" y="0" width="800" height="600" class="plot-background" />
  <line x1="60" y1="550" x2="760" y2="550" class="spine" />
  <line x1="147.5" y1="30" x2="147.5" y2="550" class="grid-line" />
  <line x1="147.5" y1="550" x2="147.5" y2="554" class="tick-line" />
  <text x="147.5" y="572" text-anchor="middle" class="tick-label">1분기</text>
  <line x1="322.5" y1="30" x2="322.5" y2="550" class="grid-line" />
  <line x1="322.5" y1="550" x2="322.5" y2="554" class="tick-line" />
  <text x="322.5" y="572" text-anchor="middle" class="tick-label">2분기</text>
  <line x1="497.5" y1="30" x2="497.5" y2="550" class="grid-line" />
  <line x1="497.5" y1="550" x2="497.5" y2="554" class="tick-line" />
  <text x="497.5" y="572" text-anchor="middle" class="tick-label">3분기</text>
  <line x1="672.5" y1="30" x2="672.5" y2="550" class="grid-line" />
  <line x1="672.5" y1="550" x2="672.5" y2="554" class="tick-line" />
  <text x="672.5" y="572" text-anchor="middle" class="tick-label">4분기</text>
  <line x1="60" y1="30" x2="60" y2="550" class="spine" />
  <line x1="60" y1="550" x2="760" y2="550" class="grid-line" />
  <line x1="56" y1="550" x2="60" y2="550" class="tick-line" />
  <text x="54" y="554" text-anchor="end" class="tick-label">0</text>
  <line x1="60" y1="402.272727" x2="760" y2="402.272727" class="grid-line" />
  <line x1="56" y1="402.272727" x2="60" y2="402.272727" class="tick-line" />
  <text x="54" y="406.272727" text-anchor="end" class="tick-label">50</text>
  <line x1="60" y1="254.545455" x2="760" y2="254.545455" class="grid-line" />
  <line x1="56" y1="254.545455" x2="60" y2="254.545455" class="tick-line" />
  <text x="54" y="258.545455" text-anchor="end" class="tick-label">100</text>
  <line x1="60" y1="106.818182" x2="760" y2="106.818182" class="grid-line" />
  <line x1="56" y1="106.818182" x2="60" y2="106.818182" class="tick-line" />
  <text x="54" y="110.818182" text-anchor="end" class="tick-label">150</text>
  <rect x="77.5" y="195.454545" width="140" height="354.545455" class="series-1" />
  <rect x="252.5" y="121.590909" width="140" height="428.409091" class="series-1" />
  <rect x="427.5" y="260.454545" width="140" height="289.545455" class="series-1" />
  <rect x="602.5" y="30" width="140" height="520" class="series-1" />
  <style>:where(.svgplot-f6724caad) .plot-background { fill: #ffffff; }
:where(.svgplot-f6724caad) .grid-line { stroke: #e0e0e0; stroke-width: 1; }
:where(.svgplot-f6724caad) .spine { stroke: #333333; stroke-width: 1; fill: none; }
:where(.svgplot-f6724caad) .tick-line { stroke: #333333; }
:where(.svgplot-f6724caad) .tick-label { fill: #111111; font-family: sans-serif; font-size: 10px; }
:where(.svgplot-f6724caad) .legend-text { fill: #111111; font-family: sans-serif; font-size: 11px; }
:where(.svgplot-f6724caad) .series-1 { fill: #E69F00; stroke: none; opacity: 0.75; }</style>
  <title>Chart</title>
  <desc>Bar chart, 4 categories (1분기, 2분기, 3분기, 4분기), values 98 to 176.</desc>
</svg>
