<?xml version="1.0" encoding="UTF-8"?>
<svg xmlns="http://www.w3.org/2000/svg" width="800" height="600" viewBox="0 0 800 600" class="svgplot-f6b21e283" role="img" aria-label="Chart">
  <rect x="0" y="0" width="800" height="600" class="plot-background" />
  <line x1="60" y1="550" x2="760" y2="550" class="spine" />
  <line x1="128.238994" y1="30" x2="128.238994" y2="550" class="grid-line" />
  <line x1="128.238994" y1="550" x2="128.238994" y2="554" class="tick-line" />
  <text x="128.238994" y="572" text-anchor="middle" class="tick-label">5</text>
  <line x1="238.301887" y1="30" x2="238.301887" y2="550" class="grid-line" />
  <line x1="238.301887" y1="550" x2="238.301887" y2="554" class="tick-line" />
  <text x="238.301887" y="572" text-anchor="middle" class="tick-label">10</text>
  <line x1="348.36478" y1="30" x2="348.36478" y2="550" class="grid-line" />
  <line x1="348.36478" y1="550" x2="348.36478" y2="554" class="tick-line" />
  <text x="348.36478" y="572" text-anchor="middle" class="tick-label">15</text>
  <line x1="458.427673" y1="30" x2="458.427673" y2="550" class="grid-line" />
  <line x1="458.427673" y1="550" x2="458.427673" y2="554" class="tick-line" />
  <text x="458.427673" y="572" text-anchor="middle" class="tick-label">20</text>
  <line x1="568.490566" y1="30" x2="568.490566" y2="550" class="grid-line" />
  <line x1="568.490566" y1="550" x2="568.490566" y2="554" class="tick-line" />
  <text x="568.490566" y="572" text-anchor="middle" class="tick-label">25</text>
  <line x1="678.553459" y1="30" x2="678.553459" y2="550" class="grid-line" />
  <line x1="678.553459" y1="550" x2="678.553459" y2="554" class="tick-line" />
  <text x="678.553459" y="572" text-anchor="middle" class="tick-label">30</text>
  <line x1="60" y1="30" x2="60" y2="550" class="spine" />
  <line x1="60" y1="550" x2="760" y2="550" class="grid-line" />
  <line x1="56" y1="550" x2="60" y2="550" class="tick-line" />
  <text x="54" y="554" text-anchor="end" class="tick-label">0</text>
  <line x1="60" y1="426.190476" x2="760" y2="426.190476" class="grid-line" />
  <line x1="56" y1="426.190476" x2="60" y2="426.190476" class="tick-line" />
  <text x="54" y="430.190476" text-anchor="end" class="tick-label">10</text>
  <line x1="60" y1="302.380952" x2="760" y2="302.380952" class="grid-line" />
  <line x1="56" y1="302.380952" x2="60" y2="302.380952" class="tick-line" />
  <text x="54" y="306.380952" text-anchor="end" class="tick-label">20</text>
  <line x1="60" y1="178.571429" x2="760" y2="178.571429" class="grid-line" />
  <line x1="56" y1="178.571429" x2="60" y2="178.571429" class="tick-line" />
  <text x="54" y="182.571429" text-anchor="end" class="tick-label">30</text>
  <line x1="60" y1="54.761905" x2="760" y2="54.761905" class="grid-line" />
  <line x1="56" y1="54.761905" x2="60" y2="54.761905" class="tick-line" />
  <text x="54" y="58.761905" text-anchor="end" class="tick-label">40</text>
  <rect x="60" y="488.095238" width="63.636364" height="61.904762" class="series-1" />
  <rect x="123.636364" y="339.52381" width="63.636364" height="210.47619" class="series-1" />
  <rect x="187.272727" y="240.47619" width="63.636364" height="309.52381" class="series-1" />
  <rect x="250.909091" y="79.52381" width="63.636364" height="470.47619" class="series-1" />
  <rect x="314.545455" y="30" width="63.636364" height="520" class="series-1" />
  <rect x="378.181818" y="116.666667" width="63.636364" height="433.333333" class="series-1" />
  <rect x="441.818182" y="153.809524" width="63.636364" height="396.190476" class="series-1" />
  <rect x="505.454545" y="265.238095" width="63.636364" height="284.761905" class="series-1" />
  <rect x="569.090909" y="314.761905" width="63.636364" height="235.238095" class="series-1" />
  <rect x="632.727273" y="525.238095" width="63.636364" height="24.761905" class="series-1" />
  <rect x="696.363636" y="525.238095" width="63.636364" height="24.761905" class="series-1" />
  <style>:where(.svgplot-f6b21e283) .plot-background { fill: #ffffff; }
:where(.svgplot-f6b21e283) .grid-line { stroke: #e0e0e0; stroke-width: 1; }
:where(.svgplot-f6b21e283) .spine { stroke: #333333; stroke-width: 1; fill: none; }
:where(.svgplot-f6b21e283) .tick-line { stroke: #333333; }
:where(.svgplot-f6b21e283) .tick-label { fill: #111111; font-family: sans-serif; font-size: 10px; }
:where(.svgplot-f6b21e283) .legend-text { fill: #111111; font-family: sans-serif; font-size: 11px; }
:where(.svgplot-f6b21e283) .series-1 { fill: #E69F00; stroke: none; opacity: 0.75; }</style>
  <title>Chart</title>
  <desc>Histogram, 240 observations in 11 bins, x 1.9 to 33.7, counts 0 to 42.</desc>
</svg>
